<?xml version="1.0" standalone="no"?><!DOCTYPE svg PUBLIC "-//W3C//DTD SVG 1.1//EN" "http://www.w3.org/Graphics/SVG/1.1/DTD/svg11.dtd"><svg t="1654151484801" class="icon" viewBox="0 0 1024 1024" version="1.1" xmlns="http://www.w3.org/2000/svg" p-id="22655" xmlns:xlink="http://www.w3.org/1999/xlink" width="200" height="200"><defs><style type="text/css">@font-face { font-family: feedback-iconfont; src: url("//at.alicdn.com/t/font_1031158_u69w8yhxdu.woff2?t=1630033759944") format("woff2"), url("//at.alicdn.com/t/font_1031158_u69w8yhxdu.woff?t=1630033759944") format("woff"), url("//at.alicdn.com/t/font_1031158_u69w8yhxdu.ttf?t=1630033759944") format("truetype"); }
</style></defs><path d="M754.4832 868.7616H493.0048c-56.3712 0-102.0416-45.6704-102.0416-102.0416V505.2416c0-56.3712 45.6704-102.0416 102.0416-102.0416h261.4784c56.3712 0 102.0416 45.6704 102.0416 102.0416v261.4784c0 56.3712-45.6704 102.0416-102.0416 102.0416z" fill="#FFE6D8" p-id="22656"></path><path d="M754.4832 868.7616H493.0048c-56.3712 0-102.0416-45.6704-102.0416-102.0416V505.2416c0-56.3712 45.6704-102.0416 102.0416-102.0416h261.4784c56.3712 0 102.0416 45.6704 102.0416 102.0416v261.4784c0 56.3712-45.6704 102.0416-102.0416 102.0416z" fill="#FFE6D8" p-id="22657"></path><path d="M856.5248 507.904c0-12.3392-2.2528-24.1664-6.1952-35.1744a105.728 105.728 0 0 0-24.6784-2.9184h-256.1024c-57.856 0-104.7552 46.8992-104.7552 104.7552v256.1024c0 12.288 2.0992 24.064 5.9904 35.0208 7.9872 1.9456 16.2816 3.072 24.832 3.072h43.0592v-227.5328c0-57.856 46.8992-104.7552 104.7552-104.7552h213.0432V507.904z" fill="#FE966C" p-id="22658"></path><path d="M856.5248 536.4736h-213.0432c-57.856 0-104.7552 46.8992-104.7552 104.7552v227.5328h73.9328v-160.8704c0-57.856 46.8992-104.7552 104.7552-104.7552h139.1104v-66.6624z" fill="#FFB392" p-id="22659"></path><path d="M717.4144 603.1872c-57.856 0-104.7552 46.8992-104.7552 104.7552v160.8704h73.9328V774.656c0-57.856 46.8992-104.7552 104.7552-104.7552h65.1776v-66.6624h-139.1104z" fill="#FED9C4" p-id="22660"></path><path d="M464.8448 830.6688v-256.1024c0-57.856 46.8992-104.7552 104.7552-104.7552h256.1024c8.5504 0 16.7936 1.1264 24.7296 3.072-14.4384-40.6016-53.0944-69.7344-98.6112-69.7344H495.6672c-57.856 0-104.7552 46.8992-104.7552 104.7552v256.1024c0 49.3056 34.1504 90.5728 80.0256 101.6832-3.84-10.9568-6.0928-22.6816-6.0928-35.0208z" fill="#FF7B4C" p-id="22661"></path><path d="M738.7136 927.0784H281.7024c-100.1472 0-181.6576-81.5104-181.6576-181.6576V288.4096c0-100.1472 81.5104-181.6576 181.6576-181.6576h265.216c22.6304 0 40.96 18.3296 40.96 40.96s-18.3296 40.96-40.96 40.96h-265.216c-54.9888 0-99.7376 44.7488-99.7376 99.7376v457.0112c0 54.9888 44.7488 99.7376 99.7376 99.7376h457.0112c54.9888 0 99.7376-44.7488 99.7376-99.7376V485.9392c0-22.6304 18.3296-40.96 40.96-40.96s40.96 18.3296 40.96 40.96v259.4304c0 100.1984-81.4592 181.7088-181.6576 181.7088z" fill="#373E51" p-id="22662"></path><path d="M694.9888 742.8096H317.4912c-22.6304 0-40.96-18.3296-40.96-40.96s18.3296-40.96 40.96-40.96h377.4464c22.6304 0 40.96 18.3296 40.96 40.96s-18.2784 40.96-40.9088 40.96z" fill="#373E51" p-id="22663"></path><path d="M510.208 566.1184c-10.3424 0-20.6336-3.8912-28.6208-11.6736a40.9344 40.9344 0 0 1-0.6656-57.9072l352.4096-360.8064a40.9344 40.9344 0 0 1 57.9072-0.6656 40.9344 40.9344 0 0 1 0.6656 57.9072l-352.4096 360.8064a40.61696 40.61696 0 0 1-29.2864 12.3392z" fill="#373E51" p-id="22664"></path></svg>