<?xml version="1.0" standalone="no"?><!DOCTYPE svg PUBLIC "-//W3C//DTD SVG 1.1//EN" "http://www.w3.org/Graphics/SVG/1.1/DTD/svg11.dtd">
<svg
  class="icon"
  width="200px"
  height="196.17px"
  viewBox="0 0 1044 1024"
  version="1.1"
  xmlns="http://www.w3.org/2000/svg"
>
  <path
    d="M682.666667 149.961328m75.424723 75.424723l211.189225 211.189226q75.424723 75.424723 0 150.849446l-211.189225 211.189226q-75.424723 75.424723-150.849447 0l-211.189225-211.189226q-75.424723-75.424723 0-150.849446l211.189225-211.189226q75.424723-75.424723 150.849447 0Z"
    fill="var(--menu-icon-color1)"
  />
  <path
    d="M298.666667 512m-277.333334 0a277.333333 277.333333 0 1 0 554.666667 0 277.333333 277.333333 0 1 0-554.666667 0Z"
    fill="var(--menu-icon-color2)"
  />
  <path
    d="M505.429333 327.168A276.309333 276.309333 0 0 1 576 512c0 70.997333-26.666667 135.765333-70.570667 184.832l-109.376-109.397333a106.666667 106.666667 0 0 1 0-150.869334z"
    fill="var(--menu-icon-color3)"
  />
</svg>
