<?xml version="1.0" standalone="no"?><!DOCTYPE svg PUBLIC "-//W3C//DTD SVG 1.1//EN" "http://www.w3.org/Graphics/SVG/1.1/DTD/svg11.dtd">
<svg
  class="icon"
  width="200px"
  height="195.98px"
  viewBox="0 0 1045 1024"
  version="1.1"
  xmlns="http://www.w3.org/2000/svg"
>
  <path
    d="M621.269333 582.613333L261.248 826.922667A85.333333 85.333333 0 0 1 128 756.309333V267.690667a85.333333 85.333333 0 0 1 133.248-70.613334L621.269333 441.386667a85.333333 85.333333 0 0 1 0 141.226666z"
    fill="var(--menu-icon-color1)"
  />
  <path
    d="M941.269333 582.613333L581.248 826.922667A85.333333 85.333333 0 0 1 448 756.309333V267.690667a85.333333 85.333333 0 0 1 133.248-70.613334L941.269333 441.386667a85.333333 85.333333 0 0 1 0 141.226666z"
    fill="var(--menu-icon-color2)"
  />
  <path
    d="M448 323.797333l173.269333 117.589334a85.333333 85.333333 0 0 1 0 141.226666L448 700.16V323.797333z"
    fill="var(--menu-icon-color3)"
  />
</svg>
