<?xml version="1.0" standalone="no"?><!DOCTYPE svg PUBLIC "-//W3C//DTD SVG 1.1//EN" "http://www.w3.org/Graphics/SVG/1.1/DTD/svg11.dtd">
<svg
  class="icon"
  width="200px"
  height="200.00px"
  viewBox="0 0 1024 1024"
  version="1.1"
  xmlns="http://www.w3.org/2000/svg"
>
  <path
    d="M512 314.273369m73.929857 73.929858l207.003601 207.003601q73.929857 73.929857 0 147.859715l-207.003601 207.003601q-73.929857 73.929857-147.859714 0l-207.003601-207.003601q-73.929857-73.929857 0-147.859715l207.003601-207.003601q73.929857-73.929857 147.859714 0Z"
    fill="var(--menu-icon-color1)"
  />
  <path
    d="M512 292.7473m-271.836778 0a271.836778 271.836778 0 1 0 543.673556 0 271.836778 271.836778 0 1 0-543.673556 0Z"
    fill="var(--menu-icon-color2)"
  />
  <path
    d="M585.939604 388.20383l107.229154 107.208243A270.833073 270.833073 0 0 1 512 564.584078c-69.590215 0-133.074558-26.138152-181.168758-69.172005l107.229154-107.208243a104.552607 104.552607 0 0 1 147.879208 0z"
    fill="var(--menu-icon-color3)"
  />
</svg>
