<?xml version="1.0" standalone="no"?><!DOCTYPE svg PUBLIC "-//W3C//DTD SVG 1.1//EN" "http://www.w3.org/Graphics/SVG/1.1/DTD/svg11.dtd">
<svg
  class="icon"
  width="200px"
  height="200.00px"
  viewBox="0 0 1024 1024"
  version="1.1"
  xmlns="http://www.w3.org/2000/svg"
>
  <path
    d="M384 85.961328m75.424723 75.424723l211.189226 211.189226q75.424723 75.424723 0 150.849446l-211.189226 211.189226q-75.424723 75.424723-150.849446 0l-211.189226-211.189226q-75.424723-75.424723 0-150.849446l211.189226-211.189226q75.424723-75.424723 150.849446 0Z"
    fill="var(--menu-icon-color1)"
  />
  <path
    d="M687.843001 89.621549m75.424724 75.424724l181.019336 181.019336q75.424723 75.424723 0 150.849446l-362.038672 362.038672q-75.424723 75.424723-150.849447 0l-181.019336-181.019336q-75.424723-75.424723 0-150.849446l362.038672-362.038672q75.424723-75.424723 150.849447 0Z"
    fill="var(--menu-icon-color2)"
  />
  <path
    d="M537.749333 239.744l132.864 132.821333a106.666667 106.666667 0 0 1 0 150.869334l-211.2 211.178666a106.666667 106.666667 0 0 1-150.826666 0l-68.096-68.053333a106.688 106.688 0 0 1 9.898666-139.477333l287.36-287.36z"
    fill="var(--menu-icon-color3)"
  />
</svg>
