<?xml version="1.0" standalone="no"?><!DOCTYPE svg PUBLIC "-//W3C//DTD SVG 1.1//EN" "http://www.w3.org/Graphics/SVG/1.1/DTD/svg11.dtd">
<svg
  class="icon"
  width="200px"
  height="200.00px"
  viewBox="0 0 1024 1024"
  version="1.1"
  xmlns="http://www.w3.org/2000/svg"
>
  <path
    d="M405.333333 234.666667m106.666667 0l341.333333 0q106.666667 0 106.666667 106.666666l0 341.333334q0 106.666667-106.666667 106.666666l-341.333333 0q-106.666667 0-106.666667-106.666666l0-341.333334q0-106.666667 106.666667-106.666666Z"
    fill="var(--menu-icon-color1)"
  />
  <path
    d="M320 512m-277.333333 0a277.333333 277.333333 0 1 0 554.666666 0 277.333333 277.333333 0 1 0-554.666666 0Z"
    fill="var(--menu-icon-color2)"
  />
  <path
    d="M440.533333 262.165333C533.333333 306.986667 597.333333 402.026667 597.333333 512s-64 204.992-156.8 249.834667A106.304 106.304 0 0 1 405.333333 682.666667V341.333333c0-30.997333 13.226667-58.922667 34.346667-78.421333z"
    fill="var(--menu-icon-color3)"
  />
</svg>
