<?xml version="1.0" standalone="no"?><!DOCTYPE svg PUBLIC "-//W3C//DTD SVG 1.1//EN" "http://www.w3.org/Graphics/SVG/1.1/DTD/svg11.dtd">
<svg
  class="icon"
  width="200px"
  height="200.00px"
  viewBox="0 0 1024 1024"
  version="1.1"
  xmlns="http://www.w3.org/2000/svg"
>
  <path
    d="M512 299.294661m60.339779 60.339779l241.359114 241.359115q60.339779 60.339779 0 120.679557l-241.359114 241.359115q-60.339779 60.339779-120.679558 0l-241.359114-241.359115q-60.339779-60.339779 0-120.679557l241.359114-241.359115q60.339779-60.339779 120.679558 0Z"
    fill="var(--menu-icon-color1)"
  />
  <path
    d="M441.386667 557.269333L197.077333 197.248A85.333333 85.333333 0 0 1 267.690667 64h488.618666a85.333333 85.333333 0 0 1 70.613334 133.248L582.613333 557.269333a85.333333 85.333333 0 0 1-141.226666 0z"
    fill="var(--menu-icon-color2)"
  />
  <path
    d="M572.330667 359.637333l86.016 85.994667-75.733334 111.637333a85.333333 85.333333 0 0 1-141.226666 0l-75.733334-111.637333 86.016-85.994667a85.333333 85.333333 0 0 1 120.661334 0z"
    fill="var(--menu-icon-color3)"
  />
</svg>
