<?xml version="1.0" standalone="no"?><!DOCTYPE svg PUBLIC "-//W3C//DTD SVG 1.1//EN" "http://www.w3.org/Graphics/SVG/1.1/DTD/svg11.dtd">
<svg
  class="icon"
  width="200px"
  height="200.00px"
  viewBox="0 0 1024 1024"
  version="1.1"
  xmlns="http://www.w3.org/2000/svg"
>
  <path
    d="M85.333333 128m106.666667 0l256 0q106.666667 0 106.666667 106.666667l0 512q0 106.666667-106.666667 106.666666l-256 0q-106.666667 0-106.666667-106.666666l0-512q0-106.666667 106.666667-106.666667Z"
    fill="var(--menu-icon-color1)"
  />
  <path
    d="M594.464488 127.906648m97.444849 43.385242l233.867637 104.124581q97.444849 43.385242 54.059607 140.830091l-208.249161 467.735274q-43.385242 97.444849-140.830091 54.059607l-233.867637-104.124581q-97.444849-43.385242-54.059607-140.83009l208.249162-467.735275q43.385242-97.444849 140.83009-54.059607Z"
    fill="var(--menu-icon-color2)"
  />
  <path
    d="M554.666667 234.666667v512a106.666667 106.666667 0 0 1-106.666667 106.666666l-7.509333-0.021333-43.605334-19.413333a106.666667 106.666667 0 0 1-54.058666-140.8l208.256-467.754667a108.373333 108.373333 0 0 1 2.56-5.333333c0.682667 4.8 1.024 9.685333 1.024 14.656z"
    fill="var(--menu-icon-color3)"
  />
</svg>
