<?xml version="1.0" standalone="no"?><!DOCTYPE svg PUBLIC "-//W3C//DTD SVG 1.1//EN" "http://www.w3.org/Graphics/SVG/1.1/DTD/svg11.dtd">
<svg
  class="icon"
  width="200px"
  height="200.00px"
  viewBox="0 0 1024 1024"
  version="1.1"
  xmlns="http://www.w3.org/2000/svg"
>
  <path
    d="M582.613333 445.397333l244.309334 360.021334A85.333333 85.333333 0 0 1 756.309333 938.666667H267.690667a85.333333 85.333333 0 0 1-70.613334-133.248L441.386667 445.397333a85.333333 85.333333 0 0 1 141.226666 0z"
    fill="var(--menu-icon-color1)"
  />
  <path
    d="M149.333333 85.333333m106.666667 0l512 0q106.666667 0 106.666667 106.666667l0 256q0 106.666667-106.666667 106.666667l-512 0q-106.666667 0-106.666667-106.666667l0-256q0-106.666667 106.666667-106.666667Z"
    fill="var(--menu-icon-color2)"
  />
  <path
    d="M559.914667 422.698667a85.333333 85.333333 0 0 1 22.698666 22.698666l74.133334 109.248h-289.493334l74.133334-109.248a85.333333 85.333333 0 0 1 118.528-22.698666z"
    fill="var(--menu-icon-color3)"
  />
</svg>
