<?xml version="1.0" standalone="no"?><!DOCTYPE svg PUBLIC "-//W3C//DTD SVG 1.1//EN" "http://www.w3.org/Graphics/SVG/1.1/DTD/svg11.dtd">
<svg
  class="icon"
  width="200px"
  height="200.00px"
  viewBox="0 0 1024 1024"
  version="1.1"
  xmlns="http://www.w3.org/2000/svg"
>
  <path
    d="M512 307.2m-266.24 0a266.24 266.24 0 1 0 532.48 0 266.24 266.24 0 1 0-532.48 0Z"
    fill="var(--menu-icon-color1)"
  />
  <path
    d="M579.7888 924.09856l234.53696-345.62048A81.92 81.92 0 0 0 746.53696 450.56H277.46304a81.92 81.92 0 0 0-67.7888 127.91808L444.2112 924.09856a81.92 81.92 0 0 0 135.5776 0z"
    fill="var(--menu-icon-color2)"
  />
  <path
    d="M736.37888 450.56A266.0352 266.0352 0 0 1 512 573.44a266.0352 266.0352 0 0 1-224.37888-122.88z"
    fill="var(--menu-icon-color3)"
  />
</svg>
