<?xml version="1.0" standalone="no"?><!DOCTYPE svg PUBLIC "-//W3C//DTD SVG 1.1//EN" "http://www.w3.org/Graphics/SVG/1.1/DTD/svg11.dtd">
<svg
  class="icon"
  width="200px"
  height="200.00px"
  viewBox="0 0 1024 1024"
  version="1.1"
  xmlns="http://www.w3.org/2000/svg"
>
  <path
    d="M689.28 104.064l244.309333 360.021333A85.333333 85.333333 0 0 1 862.976 597.333333H374.357333a85.333333 85.333333 0 0 1-70.613333-133.248L548.053333 104.064a85.333333 85.333333 0 0 1 141.226667 0z"
    fill="var(--menu-icon-color1)"
  />
  <path
    d="M64 426.666667m106.666667 0l512 0q106.666667 0 106.666666 106.666666l0 256q0 106.666667-106.666666 106.666667l-512 0q-106.666667 0-106.666667-106.666667l0-256q0-106.666667 106.666667-106.666666Z"
    fill="var(--menu-icon-color2)"
  />
  <path
    d="M682.666667 426.666667a106.666667 106.666667 0 0 1 106.666666 106.666666v64H374.336a85.333333 85.333333 0 0 1-70.613333-133.248l25.386666-37.44L682.666667 426.666667z"
    fill="var(--menu-icon-color3)"
  />
</svg>
