<?xml version="1.0" standalone="no"?><!DOCTYPE svg PUBLIC "-//W3C//DTD SVG 1.1//EN" "http://www.w3.org/Graphics/SVG/1.1/DTD/svg11.dtd">
<svg
  class="icon"
  width="200px"
  height="177.78px"
  viewBox="0 0 1152 1024"
  version="1.1"
  xmlns="http://www.w3.org/2000/svg"
>
  <path
    d="M817.28 402.730667l244.309333 360.021333A85.333333 85.333333 0 0 1 990.976 896H502.357333a85.333333 85.333333 0 0 1-70.613333-133.248L676.053333 402.730667a85.333333 85.333333 0 0 1 141.226667 0z"
    fill="var(--menu-icon-color1)"
  />
  <path
    d="M475.946667 146.730667l244.309333 360.021333A85.333333 85.333333 0 0 1 649.642667 640H161.024a85.333333 85.333333 0 0 1-70.613333-133.248L334.72 146.730667a85.333333 85.333333 0 0 1 141.226667 0z"
    fill="var(--menu-icon-color2)"
  />
  <path
    d="M662.848 422.186667l57.386667 84.565333A85.333333 85.333333 0 0 1 649.642667 640h-134.570667l147.797333-217.813333z"
    fill="var(--menu-icon-color3)"
  />
</svg>
