<?xml version="1.0" standalone="no"?><!DOCTYPE svg PUBLIC "-//W3C//DTD SVG 1.1//EN" "http://www.w3.org/Graphics/SVG/1.1/DTD/svg11.dtd">
<svg
  class="icon"
  width="200px"
  height="200.00px"
  viewBox="0 0 1024 1024"
  version="1.1"
  xmlns="http://www.w3.org/2000/svg"
>
  <path
    d="M490.666667 149.333333m106.666666 0l256 0q106.666667 0 106.666667 106.666667l0 512q0 106.666667-106.666667 106.666667l-256 0q-106.666667 0-106.666666-106.666667l0-512q0-106.666667 106.666666-106.666667Z"
    fill="var(--menu-icon-color1)"
  />
  <path
    d="M341.333333 512m-277.333333 0a277.333333 277.333333 0 1 0 554.666667 0 277.333333 277.333333 0 1 0-554.666667 0Z"
    fill="var(--menu-icon-color2)"
  />
  <path
    d="M490.666667 278.272A277.12 277.12 0 0 1 618.666667 512a277.12 277.12 0 0 1-128 233.728z"
    fill="var(--menu-icon-color3)"
  />
</svg>
