<?xml version="1.0" standalone="no"?><!DOCTYPE svg PUBLIC "-//W3C//DTD SVG 1.1//EN" "http://www.w3.org/Graphics/SVG/1.1/DTD/svg11.dtd">
<svg
  class="icon"
  width="200px"
  height="195.98px"
  viewBox="0 0 1045 1024"
  version="1.1"
  xmlns="http://www.w3.org/2000/svg"
>
  <path
    d="M710.613333 104.064l244.309334 360.021333A85.333333 85.333333 0 0 1 884.309333 597.333333H395.690667a85.333333 85.333333 0 0 1-70.613334-133.248L569.386667 104.064a85.333333 85.333333 0 0 1 141.226666 0z"
    fill="var(--menu-icon-color1)"
  />
  <path
    d="M334.72 919.936L90.410667 559.914667A85.333333 85.333333 0 0 1 161.024 426.666667h488.618667a85.333333 85.333333 0 0 1 70.613333 133.248L475.946667 919.936a85.333333 85.333333 0 0 1-141.226667 0z"
    fill="var(--menu-icon-color2)"
  />
  <path
    d="M649.642667 426.666667a85.333333 85.333333 0 0 1 70.613333 133.248l-25.386667 37.397333L395.669333 597.333333a85.333333 85.333333 0 0 1-70.613333-133.248l25.386667-37.44L649.642667 426.666667z"
    fill="var(--menu-icon-color3)"
  />
</svg>
