<?xml version="1.0" standalone="no"?>
<!DOCTYPE svg PUBLIC "-//W3C//DTD SVG 1.1//EN" "http://www.w3.org/Graphics/SVG/1.1/DTD/svg11.dtd">
<svg
  class="icon"
  width="200px"
  height="200.00px"
  viewBox="0 0 1024 1024"
  version="1.1"
  xmlns="http://www.w3.org/2000/svg"
>
  <path
    d="M384 640m-277.333333 0a277.333333 277.333333 0 1 0 554.666666 0 277.333333 277.333333 0 1 0-554.666666 0Z"
    fill="var(--menu-icon-color1)"
  />
  <path
    d="M640 384m-277.333333 0a277.333333 277.333333 0 1 0 554.666666 0 277.333333 277.333333 0 1 0-554.666666 0Z"
    fill="var(--menu-icon-color2)"
  />
  <path
    d="M384 362.666667c153.173333 0 277.333333 124.16 277.333333 277.333333 0 6.912-0.256 13.781333-0.746666 20.565333-6.805333 0.512-13.653333 0.768-20.586667 0.768-153.173333 0-277.333333-124.16-277.333333-277.333333 0-6.912 0.256-13.781333 0.746666-20.586667 6.805333-0.490667 13.653333-0.746667 20.586667-0.746666z"
    fill="var(--menu-icon-color3)"
  />
</svg>
