<?xml version="1.0" standalone="no"?><!DOCTYPE svg PUBLIC "-//W3C//DTD SVG 1.1//EN" "http://www.w3.org/Graphics/SVG/1.1/DTD/svg11.dtd">
<svg
  class="icon"
  width="200px"
  height="200.00px"
  viewBox="0 0 1024 1024"
  version="1.1"
  xmlns="http://www.w3.org/2000/svg"
>
  <path
    d="M512 299.294661m75.424723 75.424724l211.189226 211.189225q75.424723 75.424723 0 150.849447l-211.189226 211.189225q-75.424723 75.424723-150.849446 0l-211.189226-211.189225q-75.424723-75.424723 0-150.849447l211.189226-211.189225q75.424723-75.424723 150.849446 0Z"
    fill="var(--menu-icon-color1)"
  />
  <path
    d="M512 0.627995m75.424723 75.424723l211.189226 211.189225q75.424723 75.424723 0 150.849447l-211.189226 211.189225q-75.424723 75.424723-150.849446 0l-211.189226-211.189225q-75.424723-75.424723 0-150.849447l211.189226-211.189225q75.424723-75.424723 150.849446 0Z"
    fill="var(--menu-icon-color2)"
  />
  <path
    d="M587.434667 374.72l137.258666 137.258667-137.258666 137.301333a106.666667 106.666667 0 0 1-150.869334 0l-137.28-137.301333 137.28-137.258667a106.666667 106.666667 0 0 1 150.869334 0z"
    fill="var(--menu-icon-color3)"
  />
</svg>
