<?xml version="1.0" standalone="no"?><!DOCTYPE svg PUBLIC "-//W3C//DTD SVG 1.1//EN" "http://www.w3.org/Graphics/SVG/1.1/DTD/svg11.dtd">
<svg
  class="icon"
  width="200px"
  height="200.00px"
  viewBox="0 0 1024 1024"
  version="1.1"
  xmlns="http://www.w3.org/2000/svg"
>
  <path
    d="M506.823665 4.288216m75.424724 75.424723l362.038672 362.038672q75.424723 75.424723 0 150.849447l-181.019336 181.019336q-75.424723 75.424723-150.849447 0l-362.038672-362.038672q-75.424723-75.424723 0-150.849447l181.019336-181.019336q75.424723-75.424723 150.849447 0Z"
    fill="var(--menu-icon-color1)"
  />
  <path
    d="M85.333333 426.666667m106.666667 0l298.666667 0q106.666667 0 106.666666 106.666666l0 298.666667q0 106.666667-106.666666 106.666667l-298.666667 0q-106.666667 0-106.666667-106.666667l0-298.666667q0-106.666667 106.666667-106.666666Z"
    fill="var(--menu-icon-color2)"
  />
  <path
    d="M490.666667 426.666667a106.666667 106.666667 0 0 1 106.666666 106.666666v225.194667L265.450667 426.666667 490.666667 426.666667z"
    fill="var(--menu-icon-color3)"
  />
</svg>
