<?xml version="1.0" standalone="no"?><!DOCTYPE svg PUBLIC "-//W3C//DTD SVG 1.1//EN" "http://www.w3.org/Graphics/SVG/1.1/DTD/svg11.dtd">
<svg
  class="icon"
  width="200px"
  height="200.00px"
  viewBox="0 0 1024 1024"
  version="1.1"
  xmlns="http://www.w3.org/2000/svg"
>
  <path
    d="M594.456971 170.557766m97.435966 43.381287l233.846319 104.115089q97.435966 43.381287 54.054679 140.817254l-208.230178 467.692637q-43.381287 97.435966-140.817253 54.054679l-233.846319-104.115089q-97.435966-43.381287-54.054679-140.817253l208.230178-467.692638q43.381287-97.435966 140.817253-54.054679Z"
    fill="var(--menu-icon-color1)"
  />
  <path
    d="M341.348891 362.633607m-277.308053 0a277.308053 277.308053 0 1 0 554.616105 0 277.308053 277.308053 0 1 0-554.616105 0Z"
    fill="var(--menu-icon-color2)"
  />
  <path
    d="M583.26817 226.987307A276.049501 276.049501 0 0 1 618.656943 362.633607c0 137.544794-100.129538 251.710386-231.488229 273.532397l163.91039-368.179768a106.187653 106.187653 0 0 1 31.527792-40.486976z"
    fill="var(--menu-icon-color3)"
  />
</svg>
