<?xml version="1.0" standalone="no"?><!DOCTYPE svg PUBLIC "-//W3C//DTD SVG 1.1//EN" "http://www.w3.org/Graphics/SVG/1.1/DTD/svg11.dtd">
<svg
  class="icon"
  width="200px"
  height="200.00px"
  viewBox="0 0 1024 1024"
  version="1.1"
  xmlns="http://www.w3.org/2000/svg"
>
  <path
    d="M582.613333 445.397333l244.309334 360.021334A85.333333 85.333333 0 0 1 756.309333 938.666667H267.690667a85.333333 85.333333 0 0 1-70.613334-133.248L441.386667 445.397333a85.333333 85.333333 0 0 1 141.226666 0z"
    fill="var(--menu-icon-color1)"
  />
  <path
    d="M512 362.666667m-277.333333 0a277.333333 277.333333 0 1 0 554.666666 0 277.333333 277.333333 0 1 0-554.666666 0Z"
    fill="var(--menu-icon-color2)"
  />
  <path
    d="M559.914667 422.698667a85.333333 85.333333 0 0 1 22.698666 22.698666l94.890667 139.818667A276.096 276.096 0 0 1 512 640c-62.037333 0-119.296-20.373333-165.504-54.762667l94.890667-139.84a85.333333 85.333333 0 0 1 118.528-22.698666z"
    fill="var(--menu-icon-color3)"
  />
</svg>
