<?xml version="1.0" standalone="no"?><!DOCTYPE svg PUBLIC "-//W3C//DTD SVG 1.1//EN" "http://www.w3.org/Graphics/SVG/1.1/DTD/svg11.dtd">
<svg
  class="icon"
  width="200px"
  height="200.00px"
  viewBox="0 0 1024 1024"
  version="1.1"
  xmlns="http://www.w3.org/2000/svg"
>
  <path
    d="M689.28 104.064l244.309333 360.021333A85.333333 85.333333 0 0 1 862.976 597.333333H374.357333a85.333333 85.333333 0 0 1-70.613333-133.248L548.053333 104.064a85.333333 85.333333 0 0 1 141.226667 0z"
    fill="var(--menu-icon-color1)"
  />
  <path
    d="M106.666667 405.333333m85.333333 0l341.333333 0q85.333333 0 85.333334 85.333334l0 341.333333q0 85.333333-85.333334 85.333333l-341.333333 0q-85.333333 0-85.333333-85.333333l0-341.333333q0-85.333333 85.333333-85.333334Z"
    fill="var(--menu-icon-color2)"
  />
  <path
    d="M533.333333 405.333333a85.333333 85.333333 0 0 1 85.333334 85.333334v106.666666H374.336a85.333333 85.333333 0 0 1-70.613333-133.248l39.893333-58.773333L533.333333 405.333333z"
    fill="var(--menu-icon-color3)"
  />
</svg>
