<?xml version="1.0" standalone="no"?><!DOCTYPE svg PUBLIC "-//W3C//DTD SVG 1.1//EN" "http://www.w3.org/Graphics/SVG/1.1/DTD/svg11.dtd">
<svg
  class="icon"
  width="200px"
  height="200.00px"
  viewBox="0 0 1024 1024"
  version="1.1"
  xmlns="http://www.w3.org/2000/svg"
>
  <path
    d="M490.666667 64m106.666666 0l256 0q106.666667 0 106.666667 106.666667l0 512q0 106.666667-106.666667 106.666666l-256 0q-106.666667 0-106.666666-106.666666l0-512q0-106.666667 106.666666-106.666667Z"
    fill="var(--menu-icon-color1)"
  />
  <path
    d="M475.946667 445.397333l244.309333 360.021334A85.333333 85.333333 0 0 1 649.642667 938.666667H161.024a85.333333 85.333333 0 0 1-70.613333-133.248L334.72 445.397333a85.333333 85.333333 0 0 1 141.226667 0z"
    fill="var(--menu-icon-color2)"
  />
  <path
    d="M490.666667 467.050667l218.666666 322.261333L597.333333 789.333333a106.666667 106.666667 0 0 1-106.666666-106.666666V467.050667z"
    fill="var(--menu-icon-color3)"
  />
</svg>
