<?xml version="1.0" standalone="no"?><!DOCTYPE svg PUBLIC "-//W3C//DTD SVG 1.1//EN" "http://www.w3.org/Graphics/SVG/1.1/DTD/svg11.dtd">
<svg
  class="icon"
  width="200px"
  height="200.00px"
  viewBox="0 0 1024 1024"
  version="1.1"
  xmlns="http://www.w3.org/2000/svg"
>
  <path
    d="M128 384m85.333333 0l341.333334 0q85.333333 0 85.333333 85.333333l0 341.333334q0 85.333333-85.333333 85.333333l-341.333334 0q-85.333333 0-85.333333-85.333333l0-341.333334q0-85.333333 85.333333-85.333333Z"
    fill="var(--menu-icon-color1)"
  />
  <path
    d="M661.333333 362.666667m-277.333333 0a277.333333 277.333333 0 1 0 554.666667 0 277.333333 277.333333 0 1 0-554.666667 0Z"
    fill="var(--menu-icon-color2)"
  />
  <path
    d="M554.666667 384a85.333333 85.333333 0 0 1 85.333333 85.333333v169.856c-136.149333-10.346667-244.842667-119.04-255.189333-255.189333H554.666667z"
    fill="var(--menu-icon-color3)"
  />
</svg>
